<?xml version="1.0" encoding="UTF-8"?>
<!DOCTYPE svg PUBLIC '-//W3C//DTD SVG 1.1//EN' 'http://www.w3.org/Graphics/SVG/1.1/DTD/svg11.dtd'>
<svg clip-rule="evenodd" fill-rule="evenodd" image-rendering="optimizeQuality"
    shape-rendering="geometricPrecision" text-rendering="geometricPrecision" version="1.1"
    viewBox="0 0 300 300" xmlns="http://www.w3.org/2000/svg">
    <path
        d="m164.5 67.5c8.517-0.3261 16.85 0.0073 25 1-3.4 9.1996-6.4 18.533-9 28-5.103 12.306-9.436 24.972-13 38-12.103 32.639-23.436 65.639-34 99-9.006 0.166-18.006 0-27-0.5 10.905-31.549 21.905-63.049 33-94.5 8.099-23.84 16.432-47.507 25-71z"
        fill="#3c71d4" />
    <path
        d="m274.5 138.5v23c-24.667 10-49.333 20-74 30-1.29-6.704-3.29-13.204-6-19.5 0.333-0.5 0.667-1 1-1.5 17.373-6.735 34.706-13.569 52-20.5-17.294-6.931-34.627-13.765-52-20.5-0.333-0.5-0.667-1-1-1.5 0.979-2.433 1.645-4.933 2-7.5 1.234-4.251 3.067-8.251 5.5-12 24.027 10.433 48.194 20.433 72.5 30z"
        fill="#f2f2f2" />
    <path
        d="m102.5 128.5c-17.578 7.113-35.244 14.28-53 21.5 17.476 7.408 35.143 14.241 53 20.5-1.996 6.989-3.9959 13.989-6 21-24.667-10-49.333-20-74-30v-23c24.306-9.567 48.473-19.567 72.5-30 3.5626 6.178 6.063 12.845 7.5 20z"
        fill="#f2f2f2" />
</svg>