<svg width="21" height="17" viewBox="0 0 21 17" fill="none" xmlns="http://www.w3.org/2000/svg">
<path d="M20.383 2.15593C19.6196 2.49362 18.81 2.7154 17.981 2.81393C18.8548 2.29136 19.5087 1.46894 19.821 0.499927C19.001 0.987927 18.102 1.32993 17.165 1.51493C16.5356 0.841505 15.7014 0.39489 14.792 0.244511C13.8826 0.0941329 12.9489 0.248418 12.1363 0.68338C11.3236 1.11834 10.6774 1.80961 10.2981 2.64972C9.91884 3.48983 9.82775 4.43171 10.039 5.32893C8.37611 5.24558 6.74933 4.81345 5.26429 4.06059C3.77924 3.30773 2.46913 2.25097 1.419 0.958927C1.04729 1.59738 0.851955 2.32315 0.853 3.06193C0.853 4.51193 1.591 5.79293 2.713 6.54293C2.04901 6.52202 1.39963 6.34271 0.819 6.01993V6.07193C0.8192 7.03763 1.15337 7.97354 1.76485 8.72099C2.37633 9.46843 3.22748 9.9814 4.174 10.1729C3.55761 10.34 2.91131 10.3646 2.284 10.2449C2.55087 11.0762 3.07101 11.8031 3.77159 12.324C4.47218 12.8449 5.31813 13.1337 6.191 13.1499C5.32348 13.8313 4.33018 14.3349 3.26788 14.6321C2.20558 14.9293 1.09513 15.0142 0 14.8819C1.9117 16.1114 4.1371 16.764 6.41 16.7619C14.103 16.7619 18.31 10.3889 18.31 4.86193C18.31 4.68193 18.305 4.49993 18.297 4.32193C19.1159 3.73009 19.8226 2.99695 20.384 2.15693L20.383 2.15593Z" fill="#7790a8"/>
</svg>
